<svg width="500" height="500" viewBox="0 0 500 500" fill="none" xmlns="http://www.w3.org/2000/svg">
<line x1="258.5" y1="0.5" x2="258.5" y2="499.5" stroke="#D0D0D0" stroke-linecap="round"/>
<line x1="499.5" y1="247.5" x2="0.5" y2="247.5" stroke="#D0D0D0" stroke-linecap="round"/>
<g clip-path="url(#clip0_136_339)">
<path d="M268.5 245.5H259.5V236.5C259.5 235.672 258.828 235 258 235C257.172 235 256.5 235.672 256.5 236.5V245.5H247.5C246.672 245.5 246 246.172 246 247C246 247.828 246.672 248.5 247.5 248.5H256.5V257.5C256.5 258.328 257.172 259 258 259C258.828 259 259.5 258.328 259.5 257.5V248.5H268.5C269.328 248.5 270 247.828 270 247C270 246.172 269.328 245.5 268.5 245.5Z" fill="white" fill-opacity="0.5"/>
</g>
<path d="M122 298.125C96.1113 298.125 75.125 319.112 75.125 345C75.125 370.888 96.1113 391.875 122 391.875C147.888 391.875 168.875 370.888 168.875 345C168.875 319.112 147.888 298.125 122 298.125ZM122 309.844C141.416 309.844 157.156 325.584 157.156 345C157.156 364.416 141.416 380.156 122 380.156C102.584 380.156 86.8438 364.416 86.8438 345C86.8438 325.584 102.584 309.844 122 309.844ZM119.07 318.633C117.605 318.633 116.961 320.163 117.203 321.428L121.091 339.244C121.233 341.106 119.564 340.937 118.625 340.063L109.823 328.094C109.295 327.129 107.749 326.024 106.387 326.769C105.025 327.514 105.135 329.178 105.606 330.156L113.485 342.449C115.514 345.695 115.904 348.767 115.939 352.764C115.873 355.464 113.713 356.675 111.648 356.804L103.146 356.054C100.988 356.058 98.5621 357.575 98.5621 359.649C98.5621 361.722 101.979 361.442 103.836 361.919C103.836 361.919 116.097 365.502 120.797 365.508C124.005 365.511 123.923 369.673 125.814 369.664C127.603 369.656 133.845 367.326 134.896 366.802C135.948 366.278 140.727 363.682 140.78 362.462C140.843 361.017 138.076 358.537 138.955 356.951C140.989 351.542 139.015 348.528 140.414 342.949C141.484 338.685 145.438 330.352 145.438 330.352C145.438 329.41 144.939 328.739 144.174 328.24C143.351 327.884 141.925 328.069 141.562 328.966L135.586 339.66C134.67 340.495 133.495 340.277 133.218 338.781L133.609 321.892C133.753 321.326 132.966 319.862 131.601 319.664C130.236 319.467 129.527 320.419 129.465 320.964L128.25 338.054C127.931 338.844 126.747 338.959 126.413 338.103L122.141 320.531C122.178 319.369 120.993 318.633 119.07 318.633Z" fill="url(#paint0_linear_136_339)"/>
<g clip-path="url(#clip1_136_339)">
<path d="M398.296 376.871H401.508V361.096H398.3L398.296 376.871ZM369.654 355.912L368.662 352.858L383.663 347.983L384.654 351.046L369.654 355.921M389.008 331.912L379.742 319.15L382.342 317.262L391.608 330.021L389.008 331.912ZM411.154 332.029L408.554 330.137L417.825 317.379L420.425 319.267L411.154 332.029ZM430.287 356.112L415.287 351.237L416.279 348.179L431.279 353.054L430.287 356.112ZM400 295.004C372.429 295.004 350 317.433 350 344.992C350 372.571 372.429 395 400 395C427.571 395 450 372.575 450 345C450 317.429 427.571 295 400 295V295.004ZM400 305.129C422.017 305.129 439.871 322.975 439.871 344.992C439.871 367.021 422.017 384.879 400 384.879C377.975 384.879 360.125 367.021 360.125 344.992C360.125 322.975 377.979 305.129 400 305.129ZM406.467 338.296L408.862 345.662L411.975 346.671L431.708 340.262L428.125 329.242L408.392 335.654L406.467 338.3M407.871 348.717L401.604 353.271V356.542L413.8 373.333L423.175 366.517L410.979 349.729L407.871 348.717ZM398.392 353.271L392.125 348.717L389.012 349.729L376.817 366.517L386.192 373.329L398.392 356.542V353.271ZM391.137 345.667L393.529 338.304L391.604 335.658L371.871 329.242L368.287 340.267L388.025 346.683L391.137 345.667ZM396.129 336.417H403.875L405.8 333.767V313.017H394.208V333.767L396.129 336.417Z" fill="url(#paint1_linear_136_339)"/>
</g>
<g clip-path="url(#clip2_136_339)">
<path d="M391.175 63.0084C391.819 64.5351 391.831 66.2552 391.208 67.7905C390.584 69.3259 389.376 70.5508 387.85 71.1959C382.186 73.5864 377.353 77.5936 373.955 82.7165C370.557 87.8394 368.744 93.8504 368.744 99.998C368.744 106.145 370.557 112.157 373.955 117.279C377.353 122.402 382.186 126.41 387.85 128.8C388.606 129.12 389.292 129.585 389.868 130.17C390.445 130.754 390.9 131.447 391.209 132.207C391.518 132.968 391.674 133.782 391.668 134.603C391.662 135.424 391.495 136.236 391.175 136.992C390.855 137.748 390.39 138.434 389.805 139.01C389.221 139.586 388.528 140.042 387.768 140.351C387.007 140.66 386.193 140.815 385.372 140.81C384.551 140.804 383.74 140.636 382.983 140.317C375.057 136.969 368.294 131.359 363.539 124.188C358.784 117.018 356.249 108.604 356.25 100C356.25 81.8625 367.287 66.3167 382.983 59.6834C383.74 59.3636 384.551 59.196 385.372 59.1901C386.193 59.1842 387.007 59.34 387.768 59.6488C388.529 59.9576 389.221 60.4132 389.806 60.9896C390.39 61.5661 390.856 62.2521 391.175 63.0084ZM417.017 59.6834C424.942 63.0314 431.705 68.6414 436.46 75.8122C441.215 82.9829 443.751 91.3961 443.75 100C443.75 118.138 432.712 133.683 417.017 140.317C415.489 140.962 413.768 140.974 412.232 140.351C410.696 139.727 409.47 138.519 408.825 136.992C408.18 135.465 408.167 133.743 408.791 132.207C409.415 130.671 410.623 129.445 412.15 128.8C417.814 126.41 422.647 122.402 426.045 117.279C429.443 112.157 431.256 106.145 431.256 99.998C431.256 93.8504 429.443 87.8394 426.045 82.7165C422.647 77.5936 417.814 73.5864 412.15 71.1959C411.383 70.8838 410.686 70.4225 410.099 69.8388C409.512 69.2551 409.047 68.5606 408.731 67.7956C408.414 67.0307 408.253 66.2105 408.256 65.3827C408.26 64.5549 408.427 63.736 408.75 62.9736C409.072 62.2111 409.543 61.5203 410.134 60.9411C410.726 60.362 411.426 59.9062 412.195 59.6001C412.964 59.294 413.787 59.1437 414.614 59.158C415.442 59.1723 416.259 59.3509 417.017 59.6834ZM400 72.9167C401.658 72.9167 403.247 73.5752 404.419 74.7473C405.592 75.9194 406.25 77.5091 406.25 79.1667H412.5C414.158 79.1667 415.747 79.8252 416.919 80.9973C418.092 82.1694 418.75 83.7591 418.75 85.4167C418.75 87.0743 418.092 88.664 416.919 89.8361C415.747 91.0082 414.158 91.6667 412.5 91.6667H406.25V93.75H407.292C410.883 93.75 414.328 95.1767 416.867 97.7163C419.407 100.256 420.833 103.7 420.833 107.292C420.833 110.883 419.407 114.328 416.867 116.867C414.328 119.407 410.883 120.833 407.292 120.833H406.25C406.25 122.491 405.592 124.081 404.419 125.253C403.247 126.425 401.658 127.083 400 127.083C398.342 127.083 396.753 126.425 395.581 125.253C394.408 124.081 393.75 122.491 393.75 120.833H387.5C385.842 120.833 384.253 120.175 383.081 119.003C381.908 117.831 381.25 116.241 381.25 114.583C381.25 112.926 381.908 111.336 383.081 110.164C384.253 108.992 385.842 108.333 387.5 108.333H393.75V106.25H392.708C389.117 106.25 385.672 104.823 383.133 102.284C380.593 99.7442 379.167 96.2998 379.167 92.7084C379.167 89.1169 380.593 85.6725 383.133 83.133C385.672 80.5934 389.117 79.1667 392.708 79.1667H393.75C393.75 77.5091 394.408 75.9194 395.581 74.7473C396.753 73.5752 398.342 72.9167 400 72.9167ZM407.292 106.25H406.25V108.333H407.292C407.568 108.333 407.833 108.224 408.028 108.028C408.224 107.833 408.333 107.568 408.333 107.292C408.333 107.015 408.224 106.75 408.028 106.555C407.833 106.36 407.568 106.25 407.292 106.25ZM393.75 91.6667H392.708C392.432 91.6667 392.167 91.7765 391.972 91.9718C391.776 92.1672 391.667 92.4321 391.667 92.7084C391.667 92.9846 391.776 93.2496 391.972 93.4449C392.167 93.6403 392.432 93.75 392.708 93.75H393.75V91.6667Z" fill="url(#paint2_linear_136_339)"/>
</g>
<path d="M122.003 53.4812C101.937 53.4812 85.2812 74.1003 85.2812 99.9968C85.2812 110.881 88.2266 120.833 93.127 128.714C101.337 132.228 111.803 134.104 122.295 134.114C132.418 134.123 142.527 132.398 150.623 129.116C155.674 121.172 158.719 111.066 158.719 99.9964C158.719 74.0999 142.068 53.4816 122.004 53.4812H122.003ZM122.344 57.1335C138.072 57.1335 150.787 69.8429 150.787 85.571C150.787 101.299 138.072 114.014 122.344 114.014C106.616 114.014 93.9066 101.299 93.9066 85.571C93.9066 69.8425 106.616 57.1335 122.344 57.1335ZM116.936 64.95C116.431 66.0777 115.942 67.1554 115.467 68.2396C115.361 68.4824 115.234 68.54 114.955 68.5591C113.893 68.6328 112.831 68.7402 111.781 68.9107C111.436 68.9673 111.256 68.9517 111.054 68.658C110.403 67.7076 109.721 66.7779 109.032 65.8132L104.67 69.0039C105.407 70.0398 106.095 71.0277 106.811 71.9951C107.001 72.2525 106.976 72.4208 106.83 72.6917C106.489 73.3281 106.192 73.99 105.913 74.6562C105.749 75.0437 105.771 75.6128 105.497 75.8216C105.193 76.0541 104.647 75.9728 104.205 76.0238C103.278 76.1308 102.35 76.2347 101.384 76.3441L101.917 81.7203C103.272 81.5679 104.548 81.4136 105.827 81.2915C106.054 81.2701 106.397 81.3025 106.511 81.4478C107.148 82.2603 107.731 83.1148 108.386 84.0298L106.535 88.1822L111.429 90.3728C112.026 89.0423 112.608 87.7703 113.165 86.4873C113.294 86.1908 113.436 86.0898 113.779 86.0841C114.567 86.0712 115.363 86.0289 116.135 85.8849C116.583 85.8017 116.811 85.8814 117.064 86.2451C117.845 87.3662 118.666 88.4593 119.484 89.5802L122.625 87.2908L123.706 89.1634L119.803 93.0716L115.032 90.3306L112.486 94.9624C114.104 95.9046 115.666 96.814 117.089 97.6425C116.669 99.4169 116.278 101.096 115.86 102.768C115.83 102.889 115.597 103.036 115.456 103.038C114.169 103.059 112.881 103.051 111.594 103.051H110.308V108.214C110.439 108.276 110.571 108.336 110.703 108.396H115.798C115.944 109.016 116.086 109.608 116.224 110.194C117.996 110.559 119.8 110.743 121.609 110.742C124.716 110.742 127.691 110.209 130.445 109.234C128.83 106.622 129.221 103.279 131.054 101.192C133.648 98.2371 138.194 98.033 140.974 100.795C141.197 101.017 141.407 101.253 141.601 101.5C145.222 97.1738 147.391 91.6478 147.391 85.6273C147.39 84.4391 147.305 83.2524 147.134 82.0765C147.088 82.0531 147.051 82.0335 147 82.0082C146.974 81.9949 146.939 81.999 146.87 81.9906C145.974 83.5453 145.071 85.1128 144.222 86.5882L138.845 85.1105V79.796H133.509V85.1164C131.746 85.5929 130.052 86.0513 128.304 86.5238C127.456 85.0492 126.567 83.5019 125.674 81.9484L122.113 83.9474C121.857 83.591 121.639 83.2615 121.393 82.9539C121.232 82.7527 121.266 82.6169 121.387 82.3953C121.813 81.6179 122.238 80.8343 122.571 80.0154C122.728 79.6271 122.902 79.5013 123.3 79.4666C124.56 79.3578 125.816 79.2009 127.131 79.056C126.951 77.2357 126.775 75.4628 126.6 73.6806C125.272 73.808 124.041 73.9189 122.811 74.0498C122.52 74.0804 122.401 73.974 122.247 73.7255C121.703 72.8476 121.137 71.9787 120.511 71.1583C120.284 70.8619 120.232 70.6779 120.388 70.3482C120.883 69.296 121.345 68.2283 121.832 67.1376C120.181 66.4005 118.577 65.6835 116.936 64.9501L116.936 64.95ZM114.308 73.3181C116.717 73.338 118.643 75.2855 118.623 77.6808C118.602 80.1091 116.644 82.0246 114.21 81.9958C111.783 81.9675 109.904 80.0193 109.931 77.5583C109.957 75.1978 111.918 73.2978 114.308 73.3181H114.308ZM105.483 115.238C109.06 115.238 111.941 118.129 111.941 121.763C111.941 125.398 109.061 128.294 105.484 128.294C101.906 128.294 99.0312 125.398 99.0312 121.763C99.0312 118.129 101.906 115.238 105.483 115.238ZM137.775 115.381C139.484 115.381 141.124 116.06 142.333 117.269C143.541 118.478 144.22 120.117 144.22 121.826C144.22 123.536 143.541 125.175 142.333 126.384C141.124 127.593 139.484 128.272 137.775 128.272C136.066 128.272 134.426 127.593 133.217 126.384C132.009 125.175 131.33 123.536 131.33 121.826C131.33 120.117 132.009 118.478 133.217 117.269C134.426 116.06 136.066 115.381 137.775 115.381ZM97.0773 134.131V134.133C97.0779 134.133 97.0783 134.133 97.0789 134.133L97.0773 134.131ZM97.0789 134.133C99.3219 136.759 101.823 139.03 104.522 140.888L103.14 135.751C101.096 135.302 99.074 134.763 97.0789 134.133ZM146.667 134.43C144.906 134.958 143.125 135.417 141.329 135.806L140.075 140.475C142.446 138.771 144.657 136.74 146.667 134.431V134.43V134.43ZM107.121 136.523L108.989 143.493C111.198 144.558 113.505 145.359 115.886 145.868L114.9 137.468C112.294 137.273 109.698 136.958 107.121 136.523L107.121 136.523ZM137.354 136.573C135.355 136.9 133.346 137.158 131.329 137.346L130.391 145.296C132.17 144.764 133.899 144.067 135.571 143.219L137.355 136.573V136.573L137.354 136.573H137.354ZM127.633 137.607L127.632 137.613H127.634L127.633 137.607ZM127.632 137.613C125.859 137.711 124.077 137.76 122.296 137.76C121.058 137.76 119.82 137.735 118.582 137.686L119.617 146.421C120.406 146.494 121.201 146.519 122.003 146.519C123.566 146.519 125.106 146.397 126.622 146.147L127.632 137.613L127.632 137.613Z" fill="url(#paint3_linear_136_339)"/>
<path d="M29.88 187.16H24.06L23.06 190H20.68L25.66 176.08H28.3L33.28 190H30.88L29.88 187.16ZM29.24 185.3L26.98 178.84L24.7 185.3H29.24ZM37.7253 180.58C38.0586 180.02 38.4986 179.587 39.0453 179.28C39.6053 178.96 40.2653 178.8 41.0253 178.8V181.16H40.4453C39.552 181.16 38.872 181.387 38.4053 181.84C37.952 182.293 37.7253 183.08 37.7253 184.2V190H35.4453V178.98H37.7253V180.58ZM45.7811 180.84V186.94C45.7811 187.353 45.8744 187.653 46.0611 187.84C46.2611 188.013 46.5944 188.1 47.0611 188.1H48.4611V190H46.6611C45.6344 190 44.8478 189.76 44.3011 189.28C43.7544 188.8 43.4811 188.02 43.4811 186.94V180.84H42.1811V178.98H43.4811V176.24H45.7811V178.98H48.4611V180.84H45.7811ZM51.7225 177.52C51.3092 177.52 50.9625 177.38 50.6825 177.1C50.4025 176.82 50.2625 176.473 50.2625 176.06C50.2625 175.647 50.4025 175.3 50.6825 175.02C50.9625 174.74 51.3092 174.6 51.7225 174.6C52.1225 174.6 52.4625 174.74 52.7425 175.02C53.0225 175.3 53.1625 175.647 53.1625 176.06C53.1625 176.473 53.0225 176.82 52.7425 177.1C52.4625 177.38 52.1225 177.52 51.7225 177.52ZM52.8425 178.98V190H50.5625V178.98H52.8425ZM60.4559 180.84H58.4159V190H56.1159V180.84H54.8159V178.98H56.1159V178.2C56.1159 176.933 56.4493 176.013 57.1159 175.44C57.7959 174.853 58.8559 174.56 60.2959 174.56V176.46C59.6026 176.46 59.1159 176.593 58.8359 176.86C58.5559 177.113 58.4159 177.56 58.4159 178.2V178.98H60.4559V180.84ZM63.6366 177.52C63.2232 177.52 62.8766 177.38 62.5966 177.1C62.3166 176.82 62.1766 176.473 62.1766 176.06C62.1766 175.647 62.3166 175.3 62.5966 175.02C62.8766 174.74 63.2232 174.6 63.6366 174.6C64.0366 174.6 64.3766 174.74 64.6566 175.02C64.9366 175.3 65.0766 175.647 65.0766 176.06C65.0766 176.473 64.9366 176.82 64.6566 177.1C64.3766 177.38 64.0366 177.52 63.6366 177.52ZM64.7566 178.98V190H62.4766V178.98H64.7566ZM66.99 184.48C66.99 183.347 67.2167 182.353 67.67 181.5C68.1367 180.633 68.7767 179.967 69.59 179.5C70.4033 179.033 71.3367 178.8 72.39 178.8C73.7233 178.8 74.8233 179.12 75.69 179.76C76.57 180.387 77.1633 181.287 77.47 182.46H75.01C74.81 181.913 74.49 181.487 74.05 181.18C73.61 180.873 73.0567 180.72 72.39 180.72C71.4567 180.72 70.71 181.053 70.15 181.72C69.6033 182.373 69.33 183.293 69.33 184.48C69.33 185.667 69.6033 186.593 70.15 187.26C70.71 187.927 71.4567 188.26 72.39 188.26C73.71 188.26 74.5833 187.68 75.01 186.52H77.47C77.15 187.64 76.55 188.533 75.67 189.2C74.79 189.853 73.6967 190.18 72.39 190.18C71.3367 190.18 70.4033 189.947 69.59 189.48C68.7767 189 68.1367 188.333 67.67 187.48C67.2167 186.613 66.99 185.613 66.99 184.48ZM80.9022 177.52C80.4889 177.52 80.1422 177.38 79.8622 177.1C79.5822 176.82 79.4422 176.473 79.4422 176.06C79.4422 175.647 79.5822 175.3 79.8622 175.02C80.1422 174.74 80.4889 174.6 80.9022 174.6C81.3022 174.6 81.6422 174.74 81.9222 175.02C82.2022 175.3 82.3422 175.647 82.3422 176.06C82.3422 176.473 82.2022 176.82 81.9222 177.1C81.6422 177.38 81.3022 177.52 80.9022 177.52ZM82.0222 178.98V190H79.7422V178.98H82.0222ZM84.2556 184.44C84.2556 183.333 84.4823 182.353 84.9356 181.5C85.4023 180.647 86.029 179.987 86.8156 179.52C87.6156 179.04 88.4956 178.8 89.4556 178.8C90.3223 178.8 91.0756 178.973 91.7156 179.32C92.369 179.653 92.889 180.073 93.2756 180.58V178.98H95.5756V190H93.2756V188.36C92.889 188.88 92.3623 189.313 91.6956 189.66C91.029 190.007 90.269 190.18 89.4156 190.18C88.469 190.18 87.6023 189.94 86.8156 189.46C86.029 188.967 85.4023 188.287 84.9356 187.42C84.4823 186.54 84.2556 185.547 84.2556 184.44ZM93.2756 184.48C93.2756 183.72 93.1156 183.06 92.7956 182.5C92.489 181.94 92.0823 181.513 91.5756 181.22C91.069 180.927 90.5223 180.78 89.9356 180.78C89.349 180.78 88.8023 180.927 88.2956 181.22C87.789 181.5 87.3756 181.92 87.0556 182.48C86.749 183.027 86.5956 183.68 86.5956 184.44C86.5956 185.2 86.749 185.867 87.0556 186.44C87.3756 187.013 87.789 187.453 88.2956 187.76C88.8156 188.053 89.3623 188.2 89.9356 188.2C90.5223 188.2 91.069 188.053 91.5756 187.76C92.0823 187.467 92.489 187.04 92.7956 186.48C93.1156 185.907 93.2756 185.24 93.2756 184.48ZM100.85 175.2V190H98.5703V175.2H100.85ZM111.319 176.1V190H109.039V176.1H111.319ZM119.873 178.8C120.739 178.8 121.513 178.98 122.193 179.34C122.886 179.7 123.426 180.233 123.813 180.94C124.199 181.647 124.393 182.5 124.393 183.5V190H122.133V183.84C122.133 182.853 121.886 182.1 121.393 181.58C120.899 181.047 120.226 180.78 119.373 180.78C118.519 180.78 117.839 181.047 117.333 181.58C116.839 182.1 116.593 182.853 116.593 183.84V190H114.313V178.98H116.593V180.24C116.966 179.787 117.439 179.433 118.013 179.18C118.599 178.927 119.219 178.8 119.873 178.8ZM129.961 180.84V186.94C129.961 187.353 130.054 187.653 130.241 187.84C130.441 188.013 130.774 188.1 131.241 188.1H132.641V190H130.841C129.814 190 129.027 189.76 128.481 189.28C127.934 188.8 127.661 188.02 127.661 186.94V180.84H126.361V178.98H127.661V176.24H129.961V178.98H132.641V180.84H129.961ZM144.842 184.22C144.842 184.633 144.816 185.007 144.762 185.34H136.342C136.409 186.22 136.736 186.927 137.322 187.46C137.909 187.993 138.629 188.26 139.482 188.26C140.709 188.26 141.576 187.747 142.082 186.72H144.542C144.209 187.733 143.602 188.567 142.722 189.22C141.856 189.86 140.776 190.18 139.482 190.18C138.429 190.18 137.482 189.947 136.642 189.48C135.816 189 135.162 188.333 134.682 187.48C134.216 186.613 133.982 185.613 133.982 184.48C133.982 183.347 134.209 182.353 134.662 181.5C135.129 180.633 135.776 179.967 136.602 179.5C137.442 179.033 138.402 178.8 139.482 178.8C140.522 178.8 141.449 179.027 142.262 179.48C143.076 179.933 143.709 180.573 144.162 181.4C144.616 182.213 144.842 183.153 144.842 184.22ZM142.462 183.5C142.449 182.66 142.149 181.987 141.562 181.48C140.976 180.973 140.249 180.72 139.382 180.72C138.596 180.72 137.922 180.973 137.362 181.48C136.802 181.973 136.469 182.647 136.362 183.5H142.462ZM149.366 175.2V190H147.086V175.2H149.366ZM154.639 175.2V190H152.359V175.2H154.639ZM158.793 177.52C158.379 177.52 158.033 177.38 157.753 177.1C157.473 176.82 157.333 176.473 157.333 176.06C157.333 175.647 157.473 175.3 157.753 175.02C158.033 174.74 158.379 174.6 158.793 174.6C159.193 174.6 159.533 174.74 159.813 175.02C160.093 175.3 160.233 175.647 160.233 176.06C160.233 176.473 160.093 176.82 159.813 177.1C159.533 177.38 159.193 177.52 158.793 177.52ZM159.913 178.98V190H157.633V178.98H159.913ZM167.346 178.8C168.2 178.8 168.953 178.973 169.606 179.32C170.273 179.653 170.793 180.073 171.166 180.58V178.98H173.466V190.18C173.466 191.193 173.253 192.093 172.826 192.88C172.4 193.68 171.78 194.307 170.966 194.76C170.166 195.213 169.206 195.44 168.086 195.44C166.593 195.44 165.353 195.087 164.366 194.38C163.38 193.687 162.82 192.74 162.686 191.54H164.946C165.12 192.113 165.486 192.573 166.046 192.92C166.62 193.28 167.3 193.46 168.086 193.46C169.006 193.46 169.746 193.18 170.306 192.62C170.88 192.06 171.166 191.247 171.166 190.18V188.34C170.78 188.86 170.253 189.3 169.586 189.66C168.933 190.007 168.186 190.18 167.346 190.18C166.386 190.18 165.506 189.94 164.706 189.46C163.92 188.967 163.293 188.287 162.826 187.42C162.373 186.54 162.146 185.547 162.146 184.44C162.146 183.333 162.373 182.353 162.826 181.5C163.293 180.647 163.92 179.987 164.706 179.52C165.506 179.04 166.386 178.8 167.346 178.8ZM171.166 184.48C171.166 183.72 171.006 183.06 170.686 182.5C170.38 181.94 169.973 181.513 169.466 181.22C168.96 180.927 168.413 180.78 167.826 180.78C167.24 180.78 166.693 180.927 166.186 181.22C165.68 181.5 165.266 181.92 164.946 182.48C164.64 183.027 164.486 183.68 164.486 184.44C164.486 185.2 164.64 185.867 164.946 186.44C165.266 187.013 165.68 187.453 166.186 187.76C166.706 188.053 167.253 188.2 167.826 188.2C168.413 188.2 168.96 188.053 169.466 187.76C169.973 187.467 170.38 187.04 170.686 186.48C171.006 185.907 171.166 185.24 171.166 184.48ZM186.561 184.22C186.561 184.633 186.534 185.007 186.481 185.34H178.061C178.128 186.22 178.454 186.927 179.041 187.46C179.628 187.993 180.348 188.26 181.201 188.26C182.428 188.26 183.294 187.747 183.801 186.72H186.261C185.928 187.733 185.321 188.567 184.441 189.22C183.574 189.86 182.494 190.18 181.201 190.18C180.148 190.18 179.201 189.947 178.361 189.48C177.534 189 176.881 188.333 176.401 187.48C175.934 186.613 175.701 185.613 175.701 184.48C175.701 183.347 175.928 182.353 176.381 181.5C176.848 180.633 177.494 179.967 178.321 179.5C179.161 179.033 180.121 178.8 181.201 178.8C182.241 178.8 183.168 179.027 183.981 179.48C184.794 179.933 185.428 180.573 185.881 181.4C186.334 182.213 186.561 183.153 186.561 184.22ZM184.181 183.5C184.168 182.66 183.868 181.987 183.281 181.48C182.694 180.973 181.968 180.72 181.101 180.72C180.314 180.72 179.641 180.973 179.081 181.48C178.521 181.973 178.188 182.647 178.081 183.5H184.181ZM194.365 178.8C195.231 178.8 196.005 178.98 196.685 179.34C197.378 179.7 197.918 180.233 198.305 180.94C198.691 181.647 198.885 182.5 198.885 183.5V190H196.625V183.84C196.625 182.853 196.378 182.1 195.885 181.58C195.391 181.047 194.718 180.78 193.865 180.78C193.011 180.78 192.331 181.047 191.825 181.58C191.331 182.1 191.085 182.853 191.085 183.84V190H188.805V178.98H191.085V180.24C191.458 179.787 191.931 179.433 192.505 179.18C193.091 178.927 193.711 178.8 194.365 178.8ZM201.033 184.48C201.033 183.347 201.26 182.353 201.713 181.5C202.18 180.633 202.82 179.967 203.633 179.5C204.446 179.033 205.38 178.8 206.433 178.8C207.766 178.8 208.866 179.12 209.733 179.76C210.613 180.387 211.206 181.287 211.513 182.46H209.053C208.853 181.913 208.533 181.487 208.093 181.18C207.653 180.873 207.1 180.72 206.433 180.72C205.5 180.72 204.753 181.053 204.193 181.72C203.646 182.373 203.373 183.293 203.373 184.48C203.373 185.667 203.646 186.593 204.193 187.26C204.753 187.927 205.5 188.26 206.433 188.26C207.753 188.26 208.626 187.68 209.053 186.52H211.513C211.193 187.64 210.593 188.533 209.713 189.2C208.833 189.853 207.74 190.18 206.433 190.18C205.38 190.18 204.446 189.947 203.633 189.48C202.82 189 202.18 188.333 201.713 187.48C201.26 186.613 201.033 185.613 201.033 184.48ZM223.885 184.22C223.885 184.633 223.858 185.007 223.805 185.34H215.385C215.452 186.22 215.778 186.927 216.365 187.46C216.952 187.993 217.672 188.26 218.525 188.26C219.752 188.26 220.618 187.747 221.125 186.72H223.585C223.252 187.733 222.645 188.567 221.765 189.22C220.898 189.86 219.818 190.18 218.525 190.18C217.472 190.18 216.525 189.947 215.685 189.48C214.858 189 214.205 188.333 213.725 187.48C213.258 186.613 213.025 185.613 213.025 184.48C213.025 183.347 213.252 182.353 213.705 181.5C214.172 180.633 214.818 179.967 215.645 179.5C216.485 179.033 217.445 178.8 218.525 178.8C219.565 178.8 220.492 179.027 221.305 179.48C222.118 179.933 222.752 180.573 223.205 181.4C223.658 182.213 223.885 183.153 223.885 184.22ZM221.505 183.5C221.492 182.66 221.192 181.987 220.605 181.48C220.018 180.973 219.292 180.72 218.425 180.72C217.638 180.72 216.965 180.973 216.405 181.48C215.845 181.973 215.512 182.647 215.405 183.5H221.505Z" fill="white"/>
<path d="M336.94 183.86C337.687 183.993 338.32 184.387 338.84 185.04C339.36 185.693 339.62 186.433 339.62 187.26C339.62 187.967 339.433 188.607 339.06 189.18C338.7 189.74 338.173 190.187 337.48 190.52C336.787 190.84 335.98 191 335.06 191H329.5V177.1H334.8C335.747 177.1 336.56 177.26 337.24 177.58C337.92 177.9 338.433 178.333 338.78 178.88C339.127 179.413 339.3 180.013 339.3 180.68C339.3 181.48 339.087 182.147 338.66 182.68C338.233 183.213 337.66 183.607 336.94 183.86ZM331.78 182.94H334.6C335.347 182.94 335.927 182.773 336.34 182.44C336.767 182.093 336.98 181.6 336.98 180.96C336.98 180.333 336.767 179.847 336.34 179.5C335.927 179.14 335.347 178.96 334.6 178.96H331.78V182.94ZM334.86 189.14C335.633 189.14 336.24 188.953 336.68 188.58C337.12 188.207 337.34 187.687 337.34 187.02C337.34 186.34 337.107 185.8 336.64 185.4C336.173 185 335.553 184.8 334.78 184.8H331.78V189.14H334.86ZM344.358 177.1V185.96C344.358 187.013 344.631 187.807 345.178 188.34C345.738 188.873 346.511 189.14 347.498 189.14C348.498 189.14 349.271 188.873 349.818 188.34C350.378 187.807 350.658 187.013 350.658 185.96V177.1H352.938V185.92C352.938 187.053 352.691 188.013 352.198 188.8C351.704 189.587 351.044 190.173 350.218 190.56C349.391 190.947 348.478 191.14 347.478 191.14C346.478 191.14 345.564 190.947 344.738 190.56C343.924 190.173 343.278 189.587 342.798 188.8C342.318 188.013 342.078 187.053 342.078 185.92V177.1H344.358ZM360.486 191.14C359.553 191.14 358.713 190.98 357.966 190.66C357.22 190.327 356.633 189.86 356.206 189.26C355.78 188.66 355.566 187.96 355.566 187.16H358.006C358.06 187.76 358.293 188.253 358.706 188.64C359.133 189.027 359.726 189.22 360.486 189.22C361.273 189.22 361.886 189.033 362.326 188.66C362.766 188.273 362.986 187.78 362.986 187.18C362.986 186.713 362.846 186.333 362.566 186.04C362.3 185.747 361.96 185.52 361.546 185.36C361.146 185.2 360.586 185.027 359.866 184.84C358.96 184.6 358.22 184.36 357.646 184.12C357.086 183.867 356.606 183.48 356.206 182.96C355.806 182.44 355.606 181.747 355.606 180.88C355.606 180.08 355.806 179.38 356.206 178.78C356.606 178.18 357.166 177.72 357.886 177.4C358.606 177.08 359.44 176.92 360.386 176.92C361.733 176.92 362.833 177.26 363.686 177.94C364.553 178.607 365.033 179.527 365.126 180.7H362.606C362.566 180.193 362.326 179.76 361.886 179.4C361.446 179.04 360.866 178.86 360.146 178.86C359.493 178.86 358.96 179.027 358.546 179.36C358.133 179.693 357.926 180.173 357.926 180.8C357.926 181.227 358.053 181.58 358.306 181.86C358.573 182.127 358.906 182.34 359.306 182.5C359.706 182.66 360.253 182.833 360.946 183.02C361.866 183.273 362.613 183.527 363.186 183.78C363.773 184.033 364.266 184.427 364.666 184.96C365.08 185.48 365.286 186.18 365.286 187.06C365.286 187.767 365.093 188.433 364.706 189.06C364.333 189.687 363.78 190.193 363.046 190.58C362.326 190.953 361.473 191.14 360.486 191.14ZM372.517 177.1C373.997 177.1 375.29 177.387 376.397 177.96C377.517 178.52 378.377 179.333 378.977 180.4C379.59 181.453 379.897 182.687 379.897 184.1C379.897 185.513 379.59 186.74 378.977 187.78C378.377 188.82 377.517 189.62 376.397 190.18C375.29 190.727 373.997 191 372.517 191H367.977V177.1H372.517ZM372.517 189.14C374.143 189.14 375.39 188.7 376.257 187.82C377.123 186.94 377.557 185.7 377.557 184.1C377.557 182.487 377.123 181.227 376.257 180.32C375.39 179.413 374.143 178.96 372.517 178.96H370.257V189.14H372.517ZM394.572 191L391.372 185.44H389.632V191H387.352V177.1H392.152C393.218 177.1 394.118 177.287 394.852 177.66C395.598 178.033 396.152 178.533 396.512 179.16C396.885 179.787 397.072 180.487 397.072 181.26C397.072 182.167 396.805 182.993 396.272 183.74C395.752 184.473 394.945 184.973 393.852 185.24L397.292 191H394.572ZM389.632 183.62H392.152C393.005 183.62 393.645 183.407 394.072 182.98C394.512 182.553 394.732 181.98 394.732 181.26C394.732 180.54 394.518 179.98 394.092 179.58C393.665 179.167 393.018 178.96 392.152 178.96H389.632V183.62ZM410.088 185.22C410.088 185.633 410.062 186.007 410.008 186.34H401.588C401.655 187.22 401.982 187.927 402.568 188.46C403.155 188.993 403.875 189.26 404.728 189.26C405.955 189.26 406.822 188.747 407.328 187.72H409.788C409.455 188.733 408.848 189.567 407.968 190.22C407.102 190.86 406.022 191.18 404.728 191.18C403.675 191.18 402.728 190.947 401.888 190.48C401.062 190 400.408 189.333 399.928 188.48C399.462 187.613 399.228 186.613 399.228 185.48C399.228 184.347 399.455 183.353 399.908 182.5C400.375 181.633 401.022 180.967 401.848 180.5C402.688 180.033 403.648 179.8 404.728 179.8C405.768 179.8 406.695 180.027 407.508 180.48C408.322 180.933 408.955 181.573 409.408 182.4C409.862 183.213 410.088 184.153 410.088 185.22ZM407.708 184.5C407.695 183.66 407.395 182.987 406.808 182.48C406.222 181.973 405.495 181.72 404.628 181.72C403.842 181.72 403.168 181.973 402.608 182.48C402.048 182.973 401.715 183.647 401.608 184.5H407.708ZM427.132 179.98L423.712 191H421.312L419.092 182.86L416.872 191H414.472L411.032 179.98H413.352L415.652 188.84L417.992 179.98H420.372L422.612 188.8L424.892 179.98H427.132ZM428.076 185.44C428.076 184.333 428.303 183.353 428.756 182.5C429.223 181.647 429.849 180.987 430.636 180.52C431.436 180.04 432.316 179.8 433.276 179.8C434.143 179.8 434.896 179.973 435.536 180.32C436.189 180.653 436.709 181.073 437.096 181.58V179.98H439.396V191H437.096V189.36C436.709 189.88 436.183 190.313 435.516 190.66C434.849 191.007 434.089 191.18 433.236 191.18C432.289 191.18 431.423 190.94 430.636 190.46C429.849 189.967 429.223 189.287 428.756 188.42C428.303 187.54 428.076 186.547 428.076 185.44ZM437.096 185.48C437.096 184.72 436.936 184.06 436.616 183.5C436.309 182.94 435.903 182.513 435.396 182.22C434.889 181.927 434.343 181.78 433.756 181.78C433.169 181.78 432.623 181.927 432.116 182.22C431.609 182.5 431.196 182.92 430.876 183.48C430.569 184.027 430.416 184.68 430.416 185.44C430.416 186.2 430.569 186.867 430.876 187.44C431.196 188.013 431.609 188.453 432.116 188.76C432.636 189.053 433.183 189.2 433.756 189.2C434.343 189.2 434.889 189.053 435.396 188.76C435.903 188.467 436.309 188.04 436.616 187.48C436.936 186.907 437.096 186.24 437.096 185.48ZM444.671 181.58C445.004 181.02 445.444 180.587 445.991 180.28C446.551 179.96 447.211 179.8 447.971 179.8V182.16H447.391C446.497 182.16 445.817 182.387 445.351 182.84C444.897 183.293 444.671 184.08 444.671 185.2V191H442.391V179.98H444.671V181.58ZM449.306 185.44C449.306 184.333 449.533 183.353 449.986 182.5C450.453 181.647 451.08 180.987 451.866 180.52C452.666 180.04 453.553 179.8 454.526 179.8C455.246 179.8 455.953 179.96 456.646 180.28C457.353 180.587 457.913 181 458.326 181.52V176.2H460.626V191H458.326V189.34C457.953 189.873 457.433 190.313 456.766 190.66C456.113 191.007 455.36 191.18 454.506 191.18C453.546 191.18 452.666 190.94 451.866 190.46C451.08 189.967 450.453 189.287 449.986 188.42C449.533 187.54 449.306 186.547 449.306 185.44ZM458.326 185.48C458.326 184.72 458.166 184.06 457.846 183.5C457.54 182.94 457.133 182.513 456.626 182.22C456.12 181.927 455.573 181.78 454.986 181.78C454.4 181.78 453.853 181.927 453.346 182.22C452.84 182.5 452.426 182.92 452.106 183.48C451.8 184.027 451.646 184.68 451.646 185.44C451.646 186.2 451.8 186.867 452.106 187.44C452.426 188.013 452.84 188.453 453.346 188.76C453.866 189.053 454.413 189.2 454.986 189.2C455.573 189.2 456.12 189.053 456.626 188.76C457.133 188.467 457.54 188.04 457.846 187.48C458.166 186.907 458.326 186.24 458.326 185.48ZM467.621 191.18C466.754 191.18 465.974 191.027 465.281 190.72C464.601 190.4 464.061 189.973 463.661 189.44C463.261 188.893 463.048 188.287 463.021 187.62H465.381C465.421 188.087 465.641 188.48 466.041 188.8C466.454 189.107 466.968 189.26 467.581 189.26C468.221 189.26 468.714 189.14 469.061 188.9C469.421 188.647 469.601 188.327 469.601 187.94C469.601 187.527 469.401 187.22 469.001 187.02C468.614 186.82 467.994 186.6 467.141 186.36C466.314 186.133 465.641 185.913 465.121 185.7C464.601 185.487 464.148 185.16 463.761 184.72C463.388 184.28 463.201 183.7 463.201 182.98C463.201 182.393 463.374 181.86 463.721 181.38C464.068 180.887 464.561 180.5 465.201 180.22C465.854 179.94 466.601 179.8 467.441 179.8C468.694 179.8 469.701 180.12 470.461 180.76C471.234 181.387 471.648 182.247 471.701 183.34H469.421C469.381 182.847 469.181 182.453 468.821 182.16C468.461 181.867 467.974 181.72 467.361 181.72C466.761 181.72 466.301 181.833 465.981 182.06C465.661 182.287 465.501 182.587 465.501 182.96C465.501 183.253 465.608 183.5 465.821 183.7C466.034 183.9 466.294 184.06 466.601 184.18C466.908 184.287 467.361 184.427 467.961 184.6C468.761 184.813 469.414 185.033 469.921 185.26C470.441 185.473 470.888 185.793 471.261 186.22C471.634 186.647 471.828 187.213 471.841 187.92C471.841 188.547 471.668 189.107 471.321 189.6C470.974 190.093 470.481 190.48 469.841 190.76C469.214 191.04 468.474 191.18 467.621 191.18Z" fill="white"/>
<path d="M382.14 422.1V436H379.86V426.48L375.62 436H374.04L369.78 426.48V436H367.5V422.1H369.96L374.84 433L379.7 422.1H382.14ZM386.297 423.52C385.883 423.52 385.537 423.38 385.257 423.1C384.977 422.82 384.837 422.473 384.837 422.06C384.837 421.647 384.977 421.3 385.257 421.02C385.537 420.74 385.883 420.6 386.297 420.6C386.697 420.6 387.037 420.74 387.317 421.02C387.597 421.3 387.737 421.647 387.737 422.06C387.737 422.473 387.597 422.82 387.317 423.1C387.037 423.38 386.697 423.52 386.297 423.52ZM387.417 424.98V436H385.137V424.98H387.417ZM395.97 424.8C396.837 424.8 397.61 424.98 398.29 425.34C398.983 425.7 399.523 426.233 399.91 426.94C400.297 427.647 400.49 428.5 400.49 429.5V436H398.23V429.84C398.23 428.853 397.983 428.1 397.49 427.58C396.997 427.047 396.323 426.78 395.47 426.78C394.617 426.78 393.937 427.047 393.43 427.58C392.937 428.1 392.69 428.853 392.69 429.84V436H390.41V424.98H392.69V426.24C393.063 425.787 393.537 425.433 394.11 425.18C394.697 424.927 395.317 424.8 395.97 424.8ZM404.558 423.52C404.145 423.52 403.798 423.38 403.518 423.1C403.238 422.82 403.098 422.473 403.098 422.06C403.098 421.647 403.238 421.3 403.518 421.02C403.798 420.74 404.145 420.6 404.558 420.6C404.958 420.6 405.298 420.74 405.578 421.02C405.858 421.3 405.998 421.647 405.998 422.06C405.998 422.473 405.858 422.82 405.578 423.1C405.298 423.38 404.958 423.52 404.558 423.52ZM405.678 424.98V436H403.398V424.98H405.678ZM414.232 424.8C415.099 424.8 415.872 424.98 416.552 425.34C417.245 425.7 417.785 426.233 418.172 426.94C418.559 427.647 418.752 428.5 418.752 429.5V436H416.492V429.84C416.492 428.853 416.245 428.1 415.752 427.58C415.259 427.047 414.585 426.78 413.732 426.78C412.879 426.78 412.199 427.047 411.692 427.58C411.199 428.1 410.952 428.853 410.952 429.84V436H408.672V424.98H410.952V426.24C411.325 425.787 411.799 425.433 412.372 425.18C412.959 424.927 413.579 424.8 414.232 424.8ZM426.1 424.8C426.953 424.8 427.707 424.973 428.36 425.32C429.027 425.653 429.547 426.073 429.92 426.58V424.98H432.22V436.18C432.22 437.193 432.007 438.093 431.58 438.88C431.153 439.68 430.533 440.307 429.72 440.76C428.92 441.213 427.96 441.44 426.84 441.44C425.347 441.44 424.107 441.087 423.12 440.38C422.133 439.687 421.573 438.74 421.44 437.54H423.7C423.873 438.113 424.24 438.573 424.8 438.92C425.373 439.28 426.053 439.46 426.84 439.46C427.76 439.46 428.5 439.18 429.06 438.62C429.633 438.06 429.92 437.247 429.92 436.18V434.34C429.533 434.86 429.007 435.3 428.34 435.66C427.687 436.007 426.94 436.18 426.1 436.18C425.14 436.18 424.26 435.94 423.46 435.46C422.673 434.967 422.047 434.287 421.58 433.42C421.127 432.54 420.9 431.547 420.9 430.44C420.9 429.333 421.127 428.353 421.58 427.5C422.047 426.647 422.673 425.987 423.46 425.52C424.26 425.04 425.14 424.8 426.1 424.8ZM429.92 430.48C429.92 429.72 429.76 429.06 429.44 428.5C429.133 427.94 428.727 427.513 428.22 427.22C427.713 426.927 427.167 426.78 426.58 426.78C425.993 426.78 425.447 426.927 424.94 427.22C424.433 427.5 424.02 427.92 423.7 428.48C423.393 429.027 423.24 429.68 423.24 430.44C423.24 431.2 423.393 431.867 423.7 432.44C424.02 433.013 424.433 433.453 424.94 433.76C425.46 434.053 426.007 434.2 426.58 434.2C427.167 434.2 427.713 434.053 428.22 433.76C428.727 433.467 429.133 433.04 429.44 432.48C429.76 431.907 429.92 431.24 429.92 430.48Z" fill="white"/>
<path d="M69.78 419.94V424.02H74.58V425.88H69.78V430.14H75.18V432H67.5V418.08H75.18V419.94H69.78ZM77.2283 426.44C77.2283 425.333 77.4549 424.353 77.9083 423.5C78.3749 422.647 79.0016 421.987 79.7883 421.52C80.5883 421.04 81.4683 420.8 82.4283 420.8C83.2949 420.8 84.0483 420.973 84.6883 421.32C85.3416 421.653 85.8616 422.073 86.2483 422.58V420.98H88.5483V432H86.2483V430.36C85.8616 430.88 85.3349 431.313 84.6683 431.66C84.0016 432.007 83.2416 432.18 82.3883 432.18C81.4416 432.18 80.5749 431.94 79.7883 431.46C79.0016 430.967 78.3749 430.287 77.9083 429.42C77.4549 428.54 77.2283 427.547 77.2283 426.44ZM86.2483 426.48C86.2483 425.72 86.0883 425.06 85.7683 424.5C85.4616 423.94 85.0549 423.513 84.5483 423.22C84.0416 422.927 83.4949 422.78 82.9083 422.78C82.3216 422.78 81.7749 422.927 81.2683 423.22C80.7616 423.5 80.3483 423.92 80.0283 424.48C79.7216 425.027 79.5683 425.68 79.5683 426.44C79.5683 427.2 79.7216 427.867 80.0283 428.44C80.3483 429.013 80.7616 429.453 81.2683 429.76C81.7883 430.053 82.3349 430.2 82.9083 430.2C83.4949 430.2 84.0416 430.053 84.5483 429.76C85.0549 429.467 85.4616 429.04 85.7683 428.48C86.0883 427.907 86.2483 427.24 86.2483 426.48ZM95.543 432.18C94.6763 432.18 93.8963 432.027 93.203 431.72C92.523 431.4 91.983 430.973 91.583 430.44C91.183 429.893 90.9696 429.287 90.943 428.62H93.303C93.343 429.087 93.563 429.48 93.963 429.8C94.3763 430.107 94.8896 430.26 95.503 430.26C96.143 430.26 96.6363 430.14 96.983 429.9C97.343 429.647 97.523 429.327 97.523 428.94C97.523 428.527 97.323 428.22 96.923 428.02C96.5363 427.82 95.9163 427.6 95.063 427.36C94.2363 427.133 93.563 426.913 93.043 426.7C92.523 426.487 92.0696 426.16 91.683 425.72C91.3096 425.28 91.123 424.7 91.123 423.98C91.123 423.393 91.2963 422.86 91.643 422.38C91.9896 421.887 92.483 421.5 93.123 421.22C93.7763 420.94 94.523 420.8 95.363 420.8C96.6163 420.8 97.623 421.12 98.383 421.76C99.1563 422.387 99.5696 423.247 99.623 424.34H97.343C97.303 423.847 97.103 423.453 96.743 423.16C96.383 422.867 95.8963 422.72 95.283 422.72C94.683 422.72 94.223 422.833 93.903 423.06C93.583 423.287 93.423 423.587 93.423 423.96C93.423 424.253 93.5296 424.5 93.743 424.7C93.9563 424.9 94.2163 425.06 94.523 425.18C94.8296 425.287 95.283 425.427 95.883 425.6C96.683 425.813 97.3363 426.033 97.843 426.26C98.363 426.473 98.8096 426.793 99.183 427.22C99.5563 427.647 99.7496 428.213 99.763 428.92C99.763 429.547 99.5896 430.107 99.243 430.6C98.8963 431.093 98.403 431.48 97.763 431.76C97.1363 432.04 96.3963 432.18 95.543 432.18ZM112.327 426.22C112.327 426.633 112.3 427.007 112.247 427.34H103.827C103.893 428.22 104.22 428.927 104.807 429.46C105.393 429.993 106.113 430.26 106.967 430.26C108.193 430.26 109.06 429.747 109.567 428.72H112.027C111.693 429.733 111.087 430.567 110.207 431.22C109.34 431.86 108.26 432.18 106.967 432.18C105.913 432.18 104.967 431.947 104.127 431.48C103.3 431 102.647 430.333 102.167 429.48C101.7 428.613 101.467 427.613 101.467 426.48C101.467 425.347 101.693 424.353 102.147 423.5C102.613 422.633 103.26 421.967 104.087 421.5C104.927 421.033 105.887 420.8 106.967 420.8C108.007 420.8 108.933 421.027 109.747 421.48C110.56 421.933 111.193 422.573 111.647 423.4C112.1 424.213 112.327 425.153 112.327 426.22ZM109.947 425.5C109.933 424.66 109.633 423.987 109.047 423.48C108.46 422.973 107.733 422.72 106.867 422.72C106.08 422.72 105.407 422.973 104.847 423.48C104.287 423.973 103.953 424.647 103.847 425.5H109.947ZM124.546 432.18C123.506 432.18 122.566 431.947 121.726 431.48C120.886 431 120.226 430.333 119.746 429.48C119.266 428.613 119.026 427.613 119.026 426.48C119.026 425.36 119.272 424.367 119.766 423.5C120.259 422.633 120.932 421.967 121.786 421.5C122.639 421.033 123.592 420.8 124.646 420.8C125.699 420.8 126.652 421.033 127.506 421.5C128.359 421.967 129.032 422.633 129.526 423.5C130.019 424.367 130.266 425.36 130.266 426.48C130.266 427.6 130.012 428.593 129.506 429.46C128.999 430.327 128.306 431 127.426 431.48C126.559 431.947 125.599 432.18 124.546 432.18ZM124.546 430.2C125.132 430.2 125.679 430.06 126.186 429.78C126.706 429.5 127.126 429.08 127.446 428.52C127.766 427.96 127.926 427.28 127.926 426.48C127.926 425.68 127.772 425.007 127.466 424.46C127.159 423.9 126.752 423.48 126.246 423.2C125.739 422.92 125.192 422.78 124.606 422.78C124.019 422.78 123.472 422.92 122.966 423.2C122.472 423.48 122.079 423.9 121.786 424.46C121.492 425.007 121.346 425.68 121.346 426.48C121.346 427.667 121.646 428.587 122.246 429.24C122.859 429.88 123.626 430.2 124.546 430.2ZM137.14 422.84H135.1V432H132.8V422.84H131.5V420.98H132.8V420.2C132.8 418.933 133.133 418.013 133.8 417.44C134.48 416.853 135.54 416.56 136.98 416.56V418.46C136.286 418.46 135.8 418.593 135.52 418.86C135.24 419.113 135.1 419.56 135.1 420.2V420.98H137.14V422.84ZM154.335 420.98V432H152.055V430.7C151.695 431.153 151.222 431.513 150.635 431.78C150.062 432.033 149.449 432.16 148.795 432.16C147.929 432.16 147.149 431.98 146.455 431.62C145.775 431.26 145.235 430.727 144.835 430.02C144.449 429.313 144.255 428.46 144.255 427.46V420.98H146.515V427.12C146.515 428.107 146.762 428.867 147.255 429.4C147.749 429.92 148.422 430.18 149.275 430.18C150.129 430.18 150.802 429.92 151.295 429.4C151.802 428.867 152.055 428.107 152.055 427.12V420.98H154.335ZM161.344 432.18C160.477 432.18 159.697 432.027 159.004 431.72C158.324 431.4 157.784 430.973 157.384 430.44C156.984 429.893 156.77 429.287 156.744 428.62H159.104C159.144 429.087 159.364 429.48 159.764 429.8C160.177 430.107 160.69 430.26 161.304 430.26C161.944 430.26 162.437 430.14 162.784 429.9C163.144 429.647 163.324 429.327 163.324 428.94C163.324 428.527 163.124 428.22 162.724 428.02C162.337 427.82 161.717 427.6 160.864 427.36C160.037 427.133 159.364 426.913 158.844 426.7C158.324 426.487 157.87 426.16 157.484 425.72C157.11 425.28 156.924 424.7 156.924 423.98C156.924 423.393 157.097 422.86 157.444 422.38C157.79 421.887 158.284 421.5 158.924 421.22C159.577 420.94 160.324 420.8 161.164 420.8C162.417 420.8 163.424 421.12 164.184 421.76C164.957 422.387 165.37 423.247 165.424 424.34H163.144C163.104 423.847 162.904 423.453 162.544 423.16C162.184 422.867 161.697 422.72 161.084 422.72C160.484 422.72 160.024 422.833 159.704 423.06C159.384 423.287 159.224 423.587 159.224 423.96C159.224 424.253 159.33 424.5 159.544 424.7C159.757 424.9 160.017 425.06 160.324 425.18C160.63 425.287 161.084 425.427 161.684 425.6C162.484 425.813 163.137 426.033 163.644 426.26C164.164 426.473 164.61 426.793 164.984 427.22C165.357 427.647 165.55 428.213 165.564 428.92C165.564 429.547 165.39 430.107 165.044 430.6C164.697 431.093 164.204 431.48 163.564 431.76C162.937 432.04 162.197 432.18 161.344 432.18ZM178.127 426.22C178.127 426.633 178.101 427.007 178.047 427.34H169.627C169.694 428.22 170.021 428.927 170.607 429.46C171.194 429.993 171.914 430.26 172.767 430.26C173.994 430.26 174.861 429.747 175.367 428.72H177.827C177.494 429.733 176.887 430.567 176.007 431.22C175.141 431.86 174.061 432.18 172.767 432.18C171.714 432.18 170.767 431.947 169.927 431.48C169.101 431 168.447 430.333 167.967 429.48C167.501 428.613 167.267 427.613 167.267 426.48C167.267 425.347 167.494 424.353 167.947 423.5C168.414 422.633 169.061 421.967 169.887 421.5C170.727 421.033 171.687 420.8 172.767 420.8C173.807 420.8 174.734 421.027 175.547 421.48C176.361 421.933 176.994 422.573 177.447 423.4C177.901 424.213 178.127 425.153 178.127 426.22ZM175.747 425.5C175.734 424.66 175.434 423.987 174.847 423.48C174.261 422.973 173.534 422.72 172.667 422.72C171.881 422.72 171.207 422.973 170.647 423.48C170.087 423.973 169.754 424.647 169.647 425.5H175.747Z" fill="white"/>
<defs>
<linearGradient id="paint0_linear_136_339" x1="122" y1="298.125" x2="122" y2="391.875" gradientUnits="userSpaceOnUse">
<stop stop-color="#E02201"/>
<stop offset="1" stop-color="#EE7702"/>
</linearGradient>
<linearGradient id="paint1_linear_136_339" x1="400" y1="295" x2="400" y2="395" gradientUnits="userSpaceOnUse">
<stop stop-color="#DE1901"/>
<stop offset="1" stop-color="#EF7C02"/>
</linearGradient>
<linearGradient id="paint2_linear_136_339" x1="400" y1="59.1571" x2="400" y2="140.81" gradientUnits="userSpaceOnUse">
<stop stop-color="#DF1C01"/>
<stop offset="1" stop-color="#EE7B02"/>
</linearGradient>
<linearGradient id="paint3_linear_136_339" x1="122" y1="53.4812" x2="122" y2="146.519" gradientUnits="userSpaceOnUse">
<stop stop-color="#DE1901"/>
<stop offset="1" stop-color="#EE7802"/>
</linearGradient>
<clipPath id="clip0_136_339">
<rect width="24" height="24" fill="white" transform="translate(246 235)"/>
</clipPath>
<clipPath id="clip1_136_339">
<rect width="100" height="100" fill="white" transform="translate(350 295)"/>
</clipPath>
<clipPath id="clip2_136_339">
<rect width="100" height="100" fill="white" transform="translate(350 50)"/>
</clipPath>
</defs>
</svg>
